solid 
   facet normal 0.000000e+00 0.000000e+00 1.000000e+00
      outer loop
         vertex 6.926876e+01 -6.926876e+01 1.000000e+01
         vertex 9.050400e+01 -3.748798e+01 1.000000e+01
         vertex 2.598076e+00 -1.500000e+00 1.000000e+01
      endloop
   endfacet
   facet normal 0.000000e+00 0.000000e+00 1.000000e+00
      outer loop
         vertex 9.796082e+01 -1.606334e-14 1.000000e+01
         vertex 9.050400e+01 3.748798e+01 1.000000e+01
         vertex 3.000000e+00 -2.067056e-15 1.000000e+01
      endloop
   endfacet
   facet normal 0.000000e+00 0.000000e+00 1.000000e+00
      outer loop
         vertex 6.926876e+01 6.926876e+01 1.000000e+01
         vertex 3.748798e+01 9.050400e+01 1.000000e+01
         vertex 1.500000e+00 2.598076e+00 1.000000e+01
      endloop
   endfacet
   facet normal -0.000000e+00 0.000000e+00 1.000000e+00
      outer loop
         vertex 3.554775e-14 9.796082e+01 1.000000e+01
         vertex -3.748798e+01 9.050400e+01 1.000000e+01
         vertex 9.184850e-16 3.000000e+00 1.000000e+01
      endloop
   endfacet
   facet normal -0.000000e+00 0.000000e+00 1.000000e+00
      outer loop
         vertex -6.926876e+01 6.926876e+01 1.000000e+01
         vertex -9.050400e+01 3.748798e+01 1.000000e+01
         vertex -2.598076e+00 1.500000e+00 1.000000e+01
      endloop
   endfacet
   facet normal 0.000000e+00 -0.000000e+00 1.000000e+00
      outer loop
         vertex -9.796082e+01 4.072928e-15 1.000000e+01
         vertex -9.050400e+01 -3.748798e+01 1.000000e+01
         vertex -3.000000e+00 3.673940e-16 1.000000e+01
      endloop
   endfacet
   facet normal 0.000000e+00 -0.000000e+00 1.000000e+00
      outer loop
         vertex -6.926876e+01 -6.926876e+01 1.000000e+01
         vertex -3.748798e+01 -9.050400e+01 1.000000e+01
         vertex -1.500000e+00 -2.598076e+00 1.000000e+01
      endloop
   endfacet
   facet normal 0.000000e+00 0.000000e+00 1.000000e+00
      outer loop
         vertex -5.042474e-14 -9.796082e+01 1.000000e+01
         vertex 3.748798e+01 -9.050400e+01 1.000000e+01
         vertex -5.510911e-16 -3.000000e+00 1.000000e+01
      endloop
   endfacet
   facet normal 0.000000e+00 0.000000e+00 1.000000e+00
      outer loop
         vertex -2.598076e+00 -1.500000e+00 1.000000e+01
         vertex -3.000000e+00 3.673940e-16 1.000000e+01
         vertex -9.050400e+01 -3.748798e+01 1.000000e+01
      endloop
   endfacet
   facet normal 0.000000e+00 0.000000e+00 1.000000e+00
      outer loop
         vertex -2.598076e+00 1.500000e+00 1.000000e+01
         vertex -1.500000e+00 2.598076e+00 1.000000e+01
         vertex -6.926876e+01 6.926876e+01 1.000000e+01
      endloop
   endfacet
   facet normal 0.000000e+00 -0.000000e+00 1.000000e+00
      outer loop
         vertex 9.184850e-16 3.000000e+00 1.000000e+01
         vertex 1.500000e+00 2.598076e+00 1.000000e+01
         vertex 3.748798e+01 9.050400e+01 1.000000e+01
      endloop
   endfacet
   facet normal 0.000000e+00 -0.000000e+00 1.000000e+00
      outer loop
         vertex 2.598076e+00 1.500000e+00 1.000000e+01
         vertex 3.000000e+00 -2.067056e-15 1.000000e+01
         vertex 9.050400e+01 3.748798e+01 1.000000e+01
      endloop
   endfacet
   facet normal -0.000000e+00 0.000000e+00 1.000000e+00
      outer loop
         vertex 2.598076e+00 -1.500000e+00 1.000000e+01
         vertex 1.500000e+00 -2.598076e+00 1.000000e+01
         vertex 6.926876e+01 -6.926876e+01 1.000000e+01
      endloop
   endfacet
   facet normal 0.000000e+00 0.000000e+00 1.000000e+00
      outer loop
         vertex -5.510911e-16 -3.000000e+00 1.000000e+01
         vertex -1.500000e+00 -2.598076e+00 1.000000e+01
         vertex -3.748798e+01 -9.050400e+01 1.000000e+01
      endloop
   endfacet
   facet normal 0.000000e+00 0.000000e+00 1.000000e+00
      outer loop
         vertex 2.598076e+00 -1.500000e+00 1.000000e+01
         vertex 9.050400e+01 -3.748798e+01 1.000000e+01
         vertex 3.000000e+00 -2.067056e-15 1.000000e+01
      endloop
   endfacet
   facet normal 0.000000e+00 0.000000e+00 1.000000e+00
      outer loop
         vertex 3.554775e-14 9.796082e+01 1.000000e+01
         vertex 9.184850e-16 3.000000e+00 1.000000e+01
         vertex 3.748798e+01 9.050400e+01 1.000000e+01
      endloop
   endfacet
   facet normal 0.000000e+00 0.000000e+00 1.000000e+00
      outer loop
         vertex -9.796082e+01 4.072928e-15 1.000000e+01
         vertex -3.000000e+00 3.673940e-16 1.000000e+01
         vertex -9.050400e+01 3.748798e+01 1.000000e+01
      endloop
   endfacet
   facet normal 0.000000e+00 0.000000e+00 1.000000e+00
      outer loop
         vertex -5.510911e-16 -3.000000e+00 1.000000e+01
         vertex 3.748798e+01 -9.050400e+01 1.000000e+01
         vertex 1.500000e+00 -2.598076e+00 1.000000e+01
      endloop
   endfacet
   facet normal 0.000000e+00 0.000000e+00 1.000000e+00
      outer loop
         vertex 2.598076e+00 1.500000e+00 1.000000e+01
         vertex 9.050400e+01 3.748798e+01 1.000000e+01
         vertex 6.926876e+01 6.926876e+01 1.000000e+01
      endloop
   endfacet
   facet normal 0.000000e+00 -0.000000e+00 1.000000e+00
      outer loop
         vertex 3.000000e+00 -2.067056e-15 1.000000e+01
         vertex 9.050400e+01 -3.748798e+01 1.000000e+01
         vertex 9.796082e+01 -1.606334e-14 1.000000e+01
      endloop
   endfacet
   facet normal -0.000000e+00 0.000000e+00 1.000000e+00
      outer loop
         vertex -3.748798e+01 9.050400e+01 1.000000e+01
         vertex -6.926876e+01 6.926876e+01 1.000000e+01
         vertex -1.500000e+00 2.598076e+00 1.000000e+01
      endloop
   endfacet
   facet normal 0.000000e+00 -0.000000e+00 1.000000e+00
      outer loop
         vertex -3.748798e+01 -9.050400e+01 1.000000e+01
         vertex -5.042474e-14 -9.796082e+01 1.000000e+01
         vertex -5.510911e-16 -3.000000e+00 1.000000e+01
      endloop
   endfacet
   facet normal 0.000000e+00 0.000000e+00 1.000000e+00
      outer loop
         vertex -3.000000e+00 3.673940e-16 1.000000e+01
         vertex -2.598076e+00 1.500000e+00 1.000000e+01
         vertex -9.050400e+01 3.748798e+01 1.000000e+01
      endloop
   endfacet
   facet normal 0.000000e+00 -0.000000e+00 1.000000e+00
      outer loop
         vertex 1.500000e+00 2.598076e+00 1.000000e+01
         vertex 2.598076e+00 1.500000e+00 1.000000e+01
         vertex 6.926876e+01 6.926876e+01 1.000000e+01
      endloop
   endfacet
   facet normal 0.000000e+00 0.000000e+00 1.000000e+00
      outer loop
         vertex 9.184850e-16 3.000000e+00 1.000000e+01
         vertex -3.748798e+01 9.050400e+01 1.000000e+01
         vertex -1.500000e+00 2.598076e+00 1.000000e+01
      endloop
   endfacet
   facet normal 0.000000e+00 0.000000e+00 1.000000e+00
      outer loop
         vertex 6.926876e+01 -6.926876e+01 1.000000e+01
         vertex 1.500000e+00 -2.598076e+00 1.000000e+01
         vertex 3.748798e+01 -9.050400e+01 1.000000e+01
      endloop
   endfacet
   facet normal 0.000000e+00 -0.000000e+00 1.000000e+00
      outer loop
         vertex -9.050400e+01 -3.748798e+01 1.000000e+01
         vertex -6.926876e+01 -6.926876e+01 1.000000e+01
         vertex -2.598076e+00 -1.500000e+00 1.000000e+01
      endloop
   endfacet
   facet normal 0.000000e+00 0.000000e+00 1.000000e+00
      outer loop
         vertex -6.926876e+01 -6.926876e+01 1.000000e+01
         vertex -1.500000e+00 -2.598076e+00 1.000000e+01
         vertex -2.598076e+00 -1.500000e+00 1.000000e+01
      endloop
   endfacet
   facet normal -9.659258e-01 -2.588191e-01 0.000000e+00
      outer loop
         vertex -3.000000e+00 3.673940e-16 1.100000e+02
         vertex -3.000000e+00 3.673940e-16 1.000000e+01
         vertex -2.598076e+00 -1.500000e+00 1.000000e+01
      endloop
   endfacet
   facet normal -2.588191e-01 -9.659258e-01 0.000000e+00
      outer loop
         vertex -1.500000e+00 -2.598076e+00 1.000000e+01
         vertex -5.510911e-16 -3.000000e+00 1.000000e+01
         vertex -5.510911e-16 -3.000000e+00 1.100000e+02
      endloop
   endfacet
   facet normal 7.071068e-01 -7.071068e-01 0.000000e+00
      outer loop
         vertex 1.500000e+00 -2.598076e+00 1.000000e+01
         vertex 2.598076e+00 -1.500000e+00 1.000000e+01
         vertex 2.598076e+00 -1.500000e+00 1.100000e+02
      endloop
   endfacet
   facet normal 9.659258e-01 2.588191e-01 -0.000000e+00
      outer loop
         vertex 3.000000e+00 -2.067056e-15 1.000000e+01
         vertex 2.598076e+00 1.500000e+00 1.000000e+01
         vertex 2.598076e+00 1.500000e+00 1.100000e+02
      endloop
   endfacet
   facet normal 2.588191e-01 9.659258e-01 -0.000000e+00
      outer loop
         vertex 1.500000e+00 2.598076e+00 1.000000e+01
         vertex 9.184850e-16 3.000000e+00 1.000000e+01
         vertex 9.184850e-16 3.000000e+00 1.100000e+02
      endloop
   endfacet
   facet normal -7.071068e-01 7.071068e-01 0.000000e+00
      outer loop
         vertex -1.500000e+00 2.598076e+00 1.000000e+01
         vertex -2.598076e+00 1.500000e+00 1.000000e+01
         vertex -2.598076e+00 1.500000e+00 1.100000e+02
      endloop
   endfacet
   facet normal -9.659258e-01 2.588191e-01 0.000000e+00
      outer loop
         vertex -3.000000e+00 3.673940e-16 1.000000e+01
         vertex -3.000000e+00 3.673940e-16 1.100000e+02
         vertex -2.598076e+00 1.500000e+00 1.000000e+01
      endloop
   endfacet
   facet normal -2.588191e-01 9.659258e-01 0.000000e+00
      outer loop
         vertex -1.500000e+00 2.598076e+00 1.100000e+02
         vertex 9.184850e-16 3.000000e+00 1.100000e+02
         vertex 9.184850e-16 3.000000e+00 1.000000e+01
      endloop
   endfacet
   facet normal 7.071068e-01 7.071068e-01 0.000000e+00
      outer loop
         vertex 1.500000e+00 2.598076e+00 1.100000e+02
         vertex 2.598076e+00 1.500000e+00 1.100000e+02
         vertex 2.598076e+00 1.500000e+00 1.000000e+01
      endloop
   endfacet
   facet normal 9.659258e-01 -2.588191e-01 0.000000e+00
      outer loop
         vertex 3.000000e+00 -2.067056e-15 1.100000e+02
         vertex 2.598076e+00 -1.500000e+00 1.100000e+02
         vertex 2.598076e+00 -1.500000e+00 1.000000e+01
      endloop
   endfacet
   facet normal 2.588191e-01 -9.659258e-01 0.000000e+00
      outer loop
         vertex 1.500000e+00 -2.598076e+00 1.100000e+02
         vertex -5.510911e-16 -3.000000e+00 1.100000e+02
         vertex -5.510911e-16 -3.000000e+00 1.000000e+01
      endloop
   endfacet
   facet normal -7.071068e-01 -7.071068e-01 -0.000000e+00
      outer loop
         vertex -1.500000e+00 -2.598076e+00 1.100000e+02
         vertex -2.598076e+00 -1.500000e+00 1.100000e+02
         vertex -2.598076e+00 -1.500000e+00 1.000000e+01
      endloop
   endfacet
   facet normal -9.659258e-01 -2.588191e-01 0.000000e+00
      outer loop
         vertex -3.000000e+00 3.673940e-16 1.100000e+02
         vertex -2.598076e+00 -1.500000e+00 1.000000e+01
         vertex -2.598076e+00 -1.500000e+00 1.100000e+02
      endloop
   endfacet
   facet normal 9.659258e-01 2.588191e-01 0.000000e+00
      outer loop
         vertex 3.000000e+00 -2.067056e-15 1.000000e+01
         vertex 2.598076e+00 1.500000e+00 1.100000e+02
         vertex 3.000000e+00 -2.067056e-15 1.100000e+02
      endloop
   endfacet
   facet normal -9.659258e-01 2.588191e-01 0.000000e+00
      outer loop
         vertex -2.598076e+00 1.500000e+00 1.100000e+02
         vertex -2.598076e+00 1.500000e+00 1.000000e+01
         vertex -3.000000e+00 3.673940e-16 1.100000e+02
      endloop
   endfacet
   facet normal 9.659258e-01 -2.588191e-01 0.000000e+00
      outer loop
         vertex 3.000000e+00 -2.067056e-15 1.100000e+02
         vertex 2.598076e+00 -1.500000e+00 1.000000e+01
         vertex 3.000000e+00 -2.067056e-15 1.000000e+01
      endloop
   endfacet
   facet normal -7.071068e-01 -7.071068e-01 0.000000e+00
      outer loop
         vertex -2.598076e+00 -1.500000e+00 1.000000e+01
         vertex -1.500000e+00 -2.598076e+00 1.000000e+01
         vertex -1.500000e+00 -2.598076e+00 1.100000e+02
      endloop
   endfacet
   facet normal 7.071068e-01 7.071068e-01 -0.000000e+00
      outer loop
         vertex 2.598076e+00 1.500000e+00 1.000000e+01
         vertex 1.500000e+00 2.598076e+00 1.000000e+01
         vertex 1.500000e+00 2.598076e+00 1.100000e+02
      endloop
   endfacet
   facet normal -7.071068e-01 7.071068e-01 0.000000e+00
      outer loop
         vertex -2.598076e+00 1.500000e+00 1.100000e+02
         vertex -1.500000e+00 2.598076e+00 1.100000e+02
         vertex -1.500000e+00 2.598076e+00 1.000000e+01
      endloop
   endfacet
   facet normal 7.071068e-01 -7.071068e-01 0.000000e+00
      outer loop
         vertex 2.598076e+00 -1.500000e+00 1.100000e+02
         vertex 1.500000e+00 -2.598076e+00 1.100000e+02
         vertex 1.500000e+00 -2.598076e+00 1.000000e+01
      endloop
   endfacet
   facet normal -2.588191e-01 -9.659258e-01 0.000000e+00
      outer loop
         vertex -1.500000e+00 -2.598076e+00 1.000000e+01
         vertex -5.510911e-16 -3.000000e+00 1.100000e+02
         vertex -1.500000e+00 -2.598076e+00 1.100000e+02
      endloop
   endfacet
   facet normal 2.588191e-01 -9.659258e-01 0.000000e+00
      outer loop
         vertex 1.500000e+00 -2.598076e+00 1.100000e+02
         vertex -5.510911e-16 -3.000000e+00 1.000000e+01
         vertex 1.500000e+00 -2.598076e+00 1.000000e+01
      endloop
   endfacet
   facet normal -2.588191e-01 9.659258e-01 0.000000e+00
      outer loop
         vertex 9.184850e-16 3.000000e+00 1.000000e+01
         vertex -1.500000e+00 2.598076e+00 1.000000e+01
         vertex -1.500000e+00 2.598076e+00 1.100000e+02
      endloop
   endfacet
   facet normal 2.588191e-01 9.659258e-01 0.000000e+00
      outer loop
         vertex 1.500000e+00 2.598076e+00 1.000000e+01
         vertex 9.184850e-16 3.000000e+00 1.100000e+02
         vertex 1.500000e+00 2.598076e+00 1.100000e+02
      endloop
   endfacet
   facet normal 9.807853e-01 -1.950903e-01 5.810009e-17
      outer loop
         vertex 1.000000e+02 -2.449294e-14 0.000000e+00
         vertex 1.000000e+02 -2.211044e-14 8.000000e+00
         vertex 9.238795e+01 -3.826834e+01 0.000000e+00
      endloop
   endfacet
   facet normal 9.807853e-01 -1.950903e-01 0.000000e+00
      outer loop
         vertex 9.238795e+01 -3.826834e+01 8.000000e+00
         vertex 9.238795e+01 -3.826834e+01 0.000000e+00
         vertex 1.000000e+02 -2.211044e-14 8.000000e+00
      endloop
   endfacet
   facet normal 9.807853e-01 1.950903e-01 0.000000e+00
      outer loop
         vertex 9.238795e+01 3.826834e+01 0.000000e+00
         vertex 9.238795e+01 3.826834e+01 8.000000e+00
         vertex 1.000000e+02 -2.211044e-14 8.000000e+00
      endloop
   endfacet
   facet normal 9.807853e-01 1.950903e-01 0.000000e+00
      outer loop
         vertex 1.000000e+02 -2.449294e-14 0.000000e+00
         vertex 9.238795e+01 3.826834e+01 0.000000e+00
         vertex 1.000000e+02 -2.211044e-14 8.000000e+00
      endloop
   endfacet
   facet normal 8.314696e-01 5.555703e-01 0.000000e+00
      outer loop
         vertex 7.071068e+01 7.071068e+01 0.000000e+00
         vertex 7.071068e+01 7.071068e+01 8.000000e+00
         vertex 9.238795e+01 3.826834e+01 8.000000e+00
      endloop
   endfacet
   facet normal 8.314696e-01 5.555703e-01 0.000000e+00
      outer loop
         vertex 9.238795e+01 3.826834e+01 0.000000e+00
         vertex 7.071068e+01 7.071068e+01 0.000000e+00
         vertex 9.238795e+01 3.826834e+01 8.000000e+00
      endloop
   endfacet
   facet normal 5.555703e-01 8.314696e-01 0.000000e+00
      outer loop
         vertex 3.826834e+01 9.238795e+01 0.000000e+00
         vertex 3.826834e+01 9.238795e+01 8.000000e+00
         vertex 7.071068e+01 7.071068e+01 8.000000e+00
      endloop
   endfacet
   facet normal 5.555703e-01 8.314696e-01 0.000000e+00
      outer loop
         vertex 7.071068e+01 7.071068e+01 0.000000e+00
         vertex 3.826834e+01 9.238795e+01 0.000000e+00
         vertex 7.071068e+01 7.071068e+01 8.000000e+00
      endloop
   endfacet
   facet normal 1.950903e-01 9.807853e-01 6.996968e-17
      outer loop
         vertex 3.061617e-14 1.000000e+02 0.000000e+00
         vertex 2.774695e-14 1.000000e+02 8.000000e+00
         vertex 3.826834e+01 9.238795e+01 8.000000e+00
      endloop
   endfacet
   facet normal 1.950903e-01 9.807853e-01 0.000000e+00
      outer loop
         vertex 3.826834e+01 9.238795e+01 0.000000e+00
         vertex 3.061617e-14 1.000000e+02 0.000000e+00
         vertex 3.826834e+01 9.238795e+01 8.000000e+00
      endloop
   endfacet
   facet normal -1.950903e-01 9.807853e-01 0.000000e+00
      outer loop
         vertex -3.826834e+01 9.238795e+01 0.000000e+00
         vertex -3.826834e+01 9.238795e+01 8.000000e+00
         vertex 2.774695e-14 1.000000e+02 8.000000e+00
      endloop
   endfacet
   facet normal -1.950903e-01 9.807853e-01 0.000000e+00
      outer loop
         vertex 3.061617e-14 1.000000e+02 0.000000e+00
         vertex -3.826834e+01 9.238795e+01 0.000000e+00
         vertex 2.774695e-14 1.000000e+02 8.000000e+00
      endloop
   endfacet
   facet normal -5.555703e-01 8.314696e-01 0.000000e+00
      outer loop
         vertex -7.071068e+01 7.071068e+01 0.000000e+00
         vertex -7.071068e+01 7.071068e+01 8.000000e+00
         vertex -3.826834e+01 9.238795e+01 8.000000e+00
      endloop
   endfacet
   facet normal -5.555703e-01 8.314696e-01 0.000000e+00
      outer loop
         vertex -3.826834e+01 9.238795e+01 0.000000e+00
         vertex -7.071068e+01 7.071068e+01 0.000000e+00
         vertex -3.826834e+01 9.238795e+01 8.000000e+00
      endloop
   endfacet
   facet normal -8.314696e-01 5.555703e-01 0.000000e+00
      outer loop
         vertex -9.238795e+01 3.826834e+01 0.000000e+00
         vertex -9.238795e+01 3.826834e+01 8.000000e+00
         vertex -7.071068e+01 7.071068e+01 8.000000e+00
      endloop
   endfacet
   facet normal -8.314696e-01 5.555703e-01 0.000000e+00
      outer loop
         vertex -7.071068e+01 7.071068e+01 0.000000e+00
         vertex -9.238795e+01 3.826834e+01 0.000000e+00
         vertex -7.071068e+01 7.071068e+01 8.000000e+00
      endloop
   endfacet
   facet normal -9.807853e-01 1.950903e-01 -5.758747e-17
      outer loop
         vertex -1.000000e+02 1.224647e-14 0.000000e+00
         vertex -1.000000e+02 1.460794e-14 8.000000e+00
         vertex -9.238795e+01 3.826834e+01 0.000000e+00
      endloop
   endfacet
   facet normal -9.807853e-01 1.950903e-01 0.000000e+00
      outer loop
         vertex -9.238795e+01 3.826834e+01 8.000000e+00
         vertex -9.238795e+01 3.826834e+01 0.000000e+00
         vertex -1.000000e+02 1.460794e-14 8.000000e+00
      endloop
   endfacet
   facet normal -9.807853e-01 -1.950903e-01 -0.000000e+00
      outer loop
         vertex -9.238795e+01 -3.826834e+01 0.000000e+00
         vertex -9.238795e+01 -3.826834e+01 8.000000e+00
         vertex -1.000000e+02 1.460794e-14 8.000000e+00
      endloop
   endfacet
   facet normal -9.807853e-01 -1.950903e-01 0.000000e+00
      outer loop
         vertex -1.000000e+02 1.224647e-14 0.000000e+00
         vertex -9.238795e+01 -3.826834e+01 0.000000e+00
         vertex -1.000000e+02 1.460794e-14 8.000000e+00
      endloop
   endfacet
   facet normal -8.314696e-01 -5.555703e-01 -0.000000e+00
      outer loop
         vertex -7.071068e+01 -7.071068e+01 0.000000e+00
         vertex -7.071068e+01 -7.071068e+01 8.000000e+00
         vertex -9.238795e+01 -3.826834e+01 8.000000e+00
      endloop
   endfacet
   facet normal -8.314696e-01 -5.555703e-01 0.000000e+00
      outer loop
         vertex -9.238795e+01 -3.826834e+01 0.000000e+00
         vertex -7.071068e+01 -7.071068e+01 0.000000e+00
         vertex -9.238795e+01 -3.826834e+01 8.000000e+00
      endloop
   endfacet
   facet normal -5.555703e-01 -8.314696e-01 -0.000000e+00
      outer loop
         vertex -3.826834e+01 -9.238795e+01 0.000000e+00
         vertex -3.826834e+01 -9.238795e+01 8.000000e+00
         vertex -7.071068e+01 -7.071068e+01 8.000000e+00
      endloop
   endfacet
   facet normal -5.555703e-01 -8.314696e-01 0.000000e+00
      outer loop
         vertex -7.071068e+01 -7.071068e+01 0.000000e+00
         vertex -3.826834e+01 -9.238795e+01 0.000000e+00
         vertex -7.071068e+01 -7.071068e+01 8.000000e+00
      endloop
   endfacet
   facet normal -1.950903e-01 -9.807853e-01 -1.322875e-17
      outer loop
         vertex -1.836970e-14 -1.000000e+02 0.000000e+00
         vertex -1.891217e-14 -1.000000e+02 8.000000e+00
         vertex -3.826834e+01 -9.238795e+01 8.000000e+00
      endloop
   endfacet
   facet normal -1.950903e-01 -9.807853e-01 0.000000e+00
      outer loop
         vertex -3.826834e+01 -9.238795e+01 0.000000e+00
         vertex -1.836970e-14 -1.000000e+02 0.000000e+00
         vertex -3.826834e+01 -9.238795e+01 8.000000e+00
      endloop
   endfacet
   facet normal 1.950903e-01 -9.807853e-01 0.000000e+00
      outer loop
         vertex 3.826834e+01 -9.238795e+01 0.000000e+00
         vertex 3.826834e+01 -9.238795e+01 8.000000e+00
         vertex -1.836970e-14 -1.000000e+02 0.000000e+00
      endloop
   endfacet
   facet normal 1.950903e-01 -9.807853e-01 1.322875e-17
      outer loop
         vertex -1.891217e-14 -1.000000e+02 8.000000e+00
         vertex -1.836970e-14 -1.000000e+02 0.000000e+00
         vertex 3.826834e+01 -9.238795e+01 8.000000e+00
      endloop
   endfacet
   facet normal 5.555703e-01 -8.314696e-01 0.000000e+00
      outer loop
         vertex 7.071068e+01 -7.071068e+01 0.000000e+00
         vertex 7.071068e+01 -7.071068e+01 8.000000e+00
         vertex 3.826834e+01 -9.238795e+01 8.000000e+00
      endloop
   endfacet
   facet normal 5.555703e-01 -8.314696e-01 0.000000e+00
      outer loop
         vertex 3.826834e+01 -9.238795e+01 0.000000e+00
         vertex 7.071068e+01 -7.071068e+01 0.000000e+00
         vertex 3.826834e+01 -9.238795e+01 8.000000e+00
      endloop
   endfacet
   facet normal 8.314696e-01 -5.555703e-01 0.000000e+00
      outer loop
         vertex 9.238795e+01 -3.826834e+01 0.000000e+00
         vertex 9.238795e+01 -3.826834e+01 8.000000e+00
         vertex 7.071068e+01 -7.071068e+01 8.000000e+00
      endloop
   endfacet
   facet normal 8.314696e-01 -5.555703e-01 0.000000e+00
      outer loop
         vertex 7.071068e+01 -7.071068e+01 0.000000e+00
         vertex 9.238795e+01 -3.826834e+01 0.000000e+00
         vertex 7.071068e+01 -7.071068e+01 8.000000e+00
      endloop
   endfacet
   facet normal -0.000000e+00 0.000000e+00 1.000000e+00
      outer loop
         vertex -2.598076e+00 1.500000e+00 1.100000e+02
         vertex -3.000000e+00 3.673940e-16 1.100000e+02
         vertex 2.598076e+00 -1.500000e+00 1.100000e+02
      endloop
   endfacet
   facet normal -0.000000e+00 -0.000000e+00 1.000000e+00
      outer loop
         vertex -2.598076e+00 -1.500000e+00 1.100000e+02
         vertex -1.500000e+00 -2.598076e+00 1.100000e+02
         vertex -5.510911e-16 -3.000000e+00 1.100000e+02
      endloop
   endfacet
   facet normal 0.000000e+00 0.000000e+00 1.000000e+00
      outer loop
         vertex 2.598076e+00 -1.500000e+00 1.100000e+02
         vertex 3.000000e+00 -2.067056e-15 1.100000e+02
         vertex -2.598076e+00 1.500000e+00 1.100000e+02
      endloop
   endfacet
   facet normal 0.000000e+00 0.000000e+00 1.000000e+00
      outer loop
         vertex 2.598076e+00 1.500000e+00 1.100000e+02
         vertex 1.500000e+00 2.598076e+00 1.100000e+02
         vertex 9.184850e-16 3.000000e+00 1.100000e+02
      endloop
   endfacet
   facet normal 0.000000e+00 0.000000e+00 1.000000e+00
      outer loop
         vertex -1.500000e+00 2.598076e+00 1.100000e+02
         vertex -2.598076e+00 1.500000e+00 1.100000e+02
         vertex 9.184850e-16 3.000000e+00 1.100000e+02
      endloop
   endfacet
   facet normal 0.000000e+00 0.000000e+00 1.000000e+00
      outer loop
         vertex -2.598076e+00 1.500000e+00 1.100000e+02
         vertex 3.000000e+00 -2.067056e-15 1.100000e+02
         vertex 2.598076e+00 1.500000e+00 1.100000e+02
      endloop
   endfacet
   facet normal 0.000000e+00 0.000000e+00 1.000000e+00
      outer loop
         vertex -2.598076e+00 1.500000e+00 1.100000e+02
         vertex 2.598076e+00 1.500000e+00 1.100000e+02
         vertex 9.184850e-16 3.000000e+00 1.100000e+02
      endloop
   endfacet
   facet normal -0.000000e+00 -0.000000e+00 1.000000e+00
      outer loop
         vertex -3.000000e+00 3.673940e-16 1.100000e+02
         vertex -2.598076e+00 -1.500000e+00 1.100000e+02
         vertex -5.510911e-16 -3.000000e+00 1.100000e+02
      endloop
   endfacet
   facet normal 0.000000e+00 0.000000e+00 1.000000e+00
      outer loop
         vertex 1.500000e+00 -2.598076e+00 1.100000e+02
         vertex 2.598076e+00 -1.500000e+00 1.100000e+02
         vertex -3.000000e+00 3.673940e-16 1.100000e+02
      endloop
   endfacet
   facet normal 0.000000e+00 0.000000e+00 1.000000e+00
      outer loop
         vertex 1.500000e+00 -2.598076e+00 1.100000e+02
         vertex -3.000000e+00 3.673940e-16 1.100000e+02
         vertex -5.510911e-16 -3.000000e+00 1.100000e+02
      endloop
   endfacet
   facet normal 0.000000e+00 0.000000e+00 -1.000000e+00
      outer loop
         vertex 7.071068e+01 -7.071068e+01 0.000000e+00
         vertex 1.000000e+02 -2.449294e-14 0.000000e+00
         vertex 9.238795e+01 -3.826834e+01 0.000000e+00
      endloop
   endfacet
   facet normal 0.000000e+00 0.000000e+00 -1.000000e+00
      outer loop
         vertex 1.000000e+02 -2.449294e-14 0.000000e+00
         vertex 7.071068e+01 7.071068e+01 0.000000e+00
         vertex 9.238795e+01 3.826834e+01 0.000000e+00
      endloop
   endfacet
   facet normal 0.000000e+00 0.000000e+00 -1.000000e+00
      outer loop
         vertex 7.071068e+01 7.071068e+01 0.000000e+00
         vertex -3.826834e+01 9.238795e+01 0.000000e+00
         vertex 3.061617e-14 1.000000e+02 0.000000e+00
      endloop
   endfacet
   facet normal 0.000000e+00 -0.000000e+00 -1.000000e+00
      outer loop
         vertex -1.000000e+02 1.224647e-14 0.000000e+00
         vertex -9.238795e+01 3.826834e+01 0.000000e+00
         vertex -7.071068e+01 7.071068e+01 0.000000e+00
      endloop
   endfacet
   facet normal 0.000000e+00 0.000000e+00 -1.000000e+00
      outer loop
         vertex -7.071068e+01 7.071068e+01 0.000000e+00
         vertex -7.071068e+01 -7.071068e+01 0.000000e+00
         vertex -9.238795e+01 -3.826834e+01 0.000000e+00
      endloop
   endfacet
   facet normal 0.000000e+00 0.000000e+00 -1.000000e+00
      outer loop
         vertex 7.071068e+01 7.071068e+01 0.000000e+00
         vertex -1.836970e-14 -1.000000e+02 0.000000e+00
         vertex -3.826834e+01 -9.238795e+01 0.000000e+00
      endloop
   endfacet
   facet normal 0.000000e+00 0.000000e+00 -1.000000e+00
      outer loop
         vertex -1.836970e-14 -1.000000e+02 0.000000e+00
         vertex 7.071068e+01 -7.071068e+01 0.000000e+00
         vertex 3.826834e+01 -9.238795e+01 0.000000e+00
      endloop
   endfacet
   facet normal 0.000000e+00 0.000000e+00 -1.000000e+00
      outer loop
         vertex 3.826834e+01 9.238795e+01 0.000000e+00
         vertex 7.071068e+01 7.071068e+01 0.000000e+00
         vertex 3.061617e-14 1.000000e+02 0.000000e+00
      endloop
   endfacet
   facet normal 0.000000e+00 0.000000e+00 -1.000000e+00
      outer loop
         vertex 7.071068e+01 7.071068e+01 0.000000e+00
         vertex -7.071068e+01 -7.071068e+01 0.000000e+00
         vertex -7.071068e+01 7.071068e+01 0.000000e+00
      endloop
   endfacet
   facet normal 0.000000e+00 0.000000e+00 -1.000000e+00
      outer loop
         vertex 7.071068e+01 -7.071068e+01 0.000000e+00
         vertex -1.836970e-14 -1.000000e+02 0.000000e+00
         vertex 7.071068e+01 7.071068e+01 0.000000e+00
      endloop
   endfacet
   facet normal 0.000000e+00 0.000000e+00 -1.000000e+00
      outer loop
         vertex -3.826834e+01 -9.238795e+01 0.000000e+00
         vertex -7.071068e+01 -7.071068e+01 0.000000e+00
         vertex 7.071068e+01 7.071068e+01 0.000000e+00
      endloop
   endfacet
   facet normal -0.000000e+00 0.000000e+00 -1.000000e+00
      outer loop
         vertex 7.071068e+01 7.071068e+01 0.000000e+00
         vertex 1.000000e+02 -2.449294e-14 0.000000e+00
         vertex 7.071068e+01 -7.071068e+01 0.000000e+00
      endloop
   endfacet
   facet normal 0.000000e+00 0.000000e+00 -1.000000e+00
      outer loop
         vertex -9.238795e+01 -3.826834e+01 0.000000e+00
         vertex -1.000000e+02 1.224647e-14 0.000000e+00
         vertex -7.071068e+01 7.071068e+01 0.000000e+00
      endloop
   endfacet
   facet normal 0.000000e+00 0.000000e+00 -1.000000e+00
      outer loop
         vertex 7.071068e+01 7.071068e+01 0.000000e+00
         vertex -7.071068e+01 7.071068e+01 0.000000e+00
         vertex -3.826834e+01 9.238795e+01 0.000000e+00
      endloop
   endfacet
   facet normal 6.935203e-01 -1.379497e-01 7.071064e-01
      outer loop
         vertex 9.050400e+01 -3.748798e+01 1.000000e+01
         vertex 9.238795e+01 -3.826834e+01 8.000000e+00
         vertex 9.796082e+01 -1.606334e-14 1.000000e+01
      endloop
   endfacet
   facet normal 6.935195e-01 -1.379496e-01 7.071072e-01
      outer loop
         vertex 1.000000e+02 -2.211044e-14 8.000000e+00
         vertex 9.796082e+01 -1.606334e-14 1.000000e+01
         vertex 9.238795e+01 -3.826834e+01 8.000000e+00
      endloop
   endfacet
   facet normal 6.935195e-01 1.379495e-01 7.071072e-01
      outer loop
         vertex 9.796082e+01 -1.606334e-14 1.000000e+01
         vertex 1.000000e+02 -2.211044e-14 8.000000e+00
         vertex 9.050400e+01 3.748798e+01 1.000000e+01
      endloop
   endfacet
   facet normal 6.935203e-01 1.379497e-01 7.071064e-01
      outer loop
         vertex 9.238795e+01 3.826834e+01 8.000000e+00
         vertex 9.050400e+01 3.748798e+01 1.000000e+01
         vertex 1.000000e+02 -2.211044e-14 8.000000e+00
      endloop
   endfacet
   facet normal 5.879380e-01 3.928477e-01 7.071065e-01
      outer loop
         vertex 9.050400e+01 3.748798e+01 1.000000e+01
         vertex 9.238795e+01 3.826834e+01 8.000000e+00
         vertex 6.926876e+01 6.926876e+01 1.000000e+01
      endloop
   endfacet
   facet normal 5.879382e-01 3.928478e-01 7.071062e-01
      outer loop
         vertex 7.071068e+01 7.071068e+01 8.000000e+00
         vertex 6.926876e+01 6.926876e+01 1.000000e+01
         vertex 9.238795e+01 3.826834e+01 8.000000e+00
      endloop
   endfacet
   facet normal 3.928478e-01 5.879382e-01 7.071062e-01
      outer loop
         vertex 6.926876e+01 6.926876e+01 1.000000e+01
         vertex 7.071068e+01 7.071068e+01 8.000000e+00
         vertex 3.748798e+01 9.050400e+01 1.000000e+01
      endloop
   endfacet
   facet normal 3.928477e-01 5.879380e-01 7.071065e-01
      outer loop
         vertex 3.826834e+01 9.238795e+01 8.000000e+00
         vertex 3.748798e+01 9.050400e+01 1.000000e+01
         vertex 7.071068e+01 7.071068e+01 8.000000e+00
      endloop
   endfacet
   facet normal 1.379497e-01 6.935203e-01 7.071064e-01
      outer loop
         vertex 3.748798e+01 9.050400e+01 1.000000e+01
         vertex 3.826834e+01 9.238795e+01 8.000000e+00
         vertex 3.554775e-14 9.796082e+01 1.000000e+01
      endloop
   endfacet
   facet normal 1.379496e-01 6.935195e-01 7.071072e-01
      outer loop
         vertex 2.774695e-14 1.000000e+02 8.000000e+00
         vertex 3.554775e-14 9.796082e+01 1.000000e+01
         vertex 3.826834e+01 9.238795e+01 8.000000e+00
      endloop
   endfacet
   facet normal -1.379495e-01 6.935195e-01 7.071072e-01
      outer loop
         vertex 3.554775e-14 9.796082e+01 1.000000e+01
         vertex 2.774695e-14 1.000000e+02 8.000000e+00
         vertex -3.748798e+01 9.050400e+01 1.000000e+01
      endloop
   endfacet
   facet normal -1.379497e-01 6.935203e-01 7.071064e-01
      outer loop
         vertex -3.826834e+01 9.238795e+01 8.000000e+00
         vertex -3.748798e+01 9.050400e+01 1.000000e+01
         vertex 2.774695e-14 1.000000e+02 8.000000e+00
      endloop
   endfacet
   facet normal -3.928477e-01 5.879380e-01 7.071065e-01
      outer loop
         vertex -3.748798e+01 9.050400e+01 1.000000e+01
         vertex -3.826834e+01 9.238795e+01 8.000000e+00
         vertex -6.926876e+01 6.926876e+01 1.000000e+01
      endloop
   endfacet
   facet normal -3.928478e-01 5.879382e-01 7.071062e-01
      outer loop
         vertex -7.071068e+01 7.071068e+01 8.000000e+00
         vertex -6.926876e+01 6.926876e+01 1.000000e+01
         vertex -3.826834e+01 9.238795e+01 8.000000e+00
      endloop
   endfacet
   facet normal -5.879382e-01 3.928478e-01 7.071062e-01
      outer loop
         vertex -6.926876e+01 6.926876e+01 1.000000e+01
         vertex -7.071068e+01 7.071068e+01 8.000000e+00
         vertex -9.238795e+01 3.826834e+01 8.000000e+00
      endloop
   endfacet
   facet normal -5.879380e-01 3.928477e-01 7.071065e-01
      outer loop
         vertex -9.050400e+01 3.748798e+01 1.000000e+01
         vertex -6.926876e+01 6.926876e+01 1.000000e+01
         vertex -9.238795e+01 3.826834e+01 8.000000e+00
      endloop
   endfacet
   facet normal -6.935203e-01 1.379497e-01 7.071064e-01
      outer loop
         vertex -9.050400e+01 3.748798e+01 1.000000e+01
         vertex -9.238795e+01 3.826834e+01 8.000000e+00
         vertex -9.796082e+01 4.072928e-15 1.000000e+01
      endloop
   endfacet
   facet normal -6.935195e-01 1.379496e-01 7.071072e-01
      outer loop
         vertex -1.000000e+02 1.460794e-14 8.000000e+00
         vertex -9.796082e+01 4.072928e-15 1.000000e+01
         vertex -9.238795e+01 3.826834e+01 8.000000e+00
      endloop
   endfacet
   facet normal -6.935195e-01 -1.379496e-01 7.071072e-01
      outer loop
         vertex -9.796082e+01 4.072928e-15 1.000000e+01
         vertex -1.000000e+02 1.460794e-14 8.000000e+00
         vertex -9.238795e+01 -3.826834e+01 8.000000e+00
      endloop
   endfacet
   facet normal -6.935203e-01 -1.379497e-01 7.071064e-01
      outer loop
         vertex -9.050400e+01 -3.748798e+01 1.000000e+01
         vertex -9.796082e+01 4.072928e-15 1.000000e+01
         vertex -9.238795e+01 -3.826834e+01 8.000000e+00
      endloop
   endfacet
   facet normal -5.879380e-01 -3.928477e-01 7.071065e-01
      outer loop
         vertex -9.050400e+01 -3.748798e+01 1.000000e+01
         vertex -9.238795e+01 -3.826834e+01 8.000000e+00
         vertex -6.926876e+01 -6.926876e+01 1.000000e+01
      endloop
   endfacet
   facet normal -5.879382e-01 -3.928478e-01 7.071062e-01
      outer loop
         vertex -7.071068e+01 -7.071068e+01 8.000000e+00
         vertex -6.926876e+01 -6.926876e+01 1.000000e+01
         vertex -9.238795e+01 -3.826834e+01 8.000000e+00
      endloop
   endfacet
   facet normal -3.928478e-01 -5.879382e-01 7.071062e-01
      outer loop
         vertex -6.926876e+01 -6.926876e+01 1.000000e+01
         vertex -7.071068e+01 -7.071068e+01 8.000000e+00
         vertex -3.826834e+01 -9.238795e+01 8.000000e+00
      endloop
   endfacet
   facet normal -3.928477e-01 -5.879380e-01 7.071065e-01
      outer loop
         vertex -3.748798e+01 -9.050400e+01 1.000000e+01
         vertex -6.926876e+01 -6.926876e+01 1.000000e+01
         vertex -3.826834e+01 -9.238795e+01 8.000000e+00
      endloop
   endfacet
   facet normal -1.379497e-01 -6.935203e-01 7.071064e-01
      outer loop
         vertex -3.748798e+01 -9.050400e+01 1.000000e+01
         vertex -3.826834e+01 -9.238795e+01 8.000000e+00
         vertex -5.042474e-14 -9.796082e+01 1.000000e+01
      endloop
   endfacet
   facet normal -1.379496e-01 -6.935195e-01 7.071072e-01
      outer loop
         vertex -1.891217e-14 -1.000000e+02 8.000000e+00
         vertex -5.042474e-14 -9.796082e+01 1.000000e+01
         vertex -3.826834e+01 -9.238795e+01 8.000000e+00
      endloop
   endfacet
   facet normal 1.379495e-01 -6.935195e-01 7.071072e-01
      outer loop
         vertex -5.042474e-14 -9.796082e+01 1.000000e+01
         vertex -1.891217e-14 -1.000000e+02 8.000000e+00
         vertex 3.748798e+01 -9.050400e+01 1.000000e+01
      endloop
   endfacet
   facet normal 1.379497e-01 -6.935203e-01 7.071064e-01
      outer loop
         vertex 3.826834e+01 -9.238795e+01 8.000000e+00
         vertex 3.748798e+01 -9.050400e+01 1.000000e+01
         vertex -1.891217e-14 -1.000000e+02 8.000000e+00
      endloop
   endfacet
   facet normal 3.928477e-01 -5.879380e-01 7.071065e-01
      outer loop
         vertex 3.748798e+01 -9.050400e+01 1.000000e+01
         vertex 3.826834e+01 -9.238795e+01 8.000000e+00
         vertex 7.071068e+01 -7.071068e+01 8.000000e+00
      endloop
   endfacet
   facet normal 3.928478e-01 -5.879382e-01 7.071062e-01
      outer loop
         vertex 6.926876e+01 -6.926876e+01 1.000000e+01
         vertex 3.748798e+01 -9.050400e+01 1.000000e+01
         vertex 7.071068e+01 -7.071068e+01 8.000000e+00
      endloop
   endfacet
   facet normal 5.879382e-01 -3.928478e-01 7.071062e-01
      outer loop
         vertex 6.926876e+01 -6.926876e+01 1.000000e+01
         vertex 7.071068e+01 -7.071068e+01 8.000000e+00
         vertex 9.050400e+01 -3.748798e+01 1.000000e+01
      endloop
   endfacet
   facet normal 5.879380e-01 -3.928477e-01 7.071065e-01
      outer loop
         vertex 9.238795e+01 -3.826834e+01 8.000000e+00
         vertex 9.050400e+01 -3.748798e+01 1.000000e+01
         vertex 7.071068e+01 -7.071068e+01 8.000000e+00
      endloop
   endfacet
endsolid
